<?xml version="1.0" standalone="no"?>
<!DOCTYPE svg PUBLIC "-//W3C//DTD SVG 20010904//EN"
 "http://www.w3.org/TR/2001/REC-SVG-20010904/DTD/svg10.dtd">
<svg version="1.0" xmlns="http://www.w3.org/2000/svg"
 width="185.000000pt" height="185.000000pt" viewBox="0 0 185.000000 185.000000"
 preserveAspectRatio="xMidYMid meet">
<metadata>
Created by potrace 1.16, written by Peter Selinger 2001-2019
</metadata>
<rect width="100%" height="100%" fill="#e0e0e0"/>
<g transform="translate(0.000000,185.000000) scale(0.100000,-0.100000)"
fill="#21262e" stroke="none">
<path d="M0 925 l0 -925 925 0 925 0 0 925 0 925 -925 0 -925 0 0 -925z m1820
0 l0 -895 -895 0 -895 0 0 895 0 895 895 0 895 0 0 -895z"/>
<path d="M110 1495 l0 -245 245 0 245 0 0 245 0 245 -245 0 -245 0 0 -245z
m378 103 c-2 -15 -10 -23 -22 -23 -10 0 -22 10 -27 23 -8 20 -5 22 22 22 26 0
30 -3 27 -22z m-78 -8 c9 -16 8 -22 -5 -26 -23 -9 -45 3 -45 26 0 27 36 27 50
0z m-80 -9 c15 -29 13 -33 -17 -29 -20 2 -29 9 -31 26 -4 28 33 31 48 3z m-80
-10 c14 -28 13 -31 -14 -31 -28 0 -40 14 -32 35 8 21 33 18 46 -4z m240 -131
l0 -81 -137 3 -138 3 -3 78 -3 77 141 0 140 0 0 -80z"/>
<path d="M680 1495 l0 -245 245 0 245 0 0 245 0 245 -245 0 -245 0 0 -245z
m378 103 c-2 -15 -10 -23 -22 -23 -10 0 -22 10 -27 23 -8 20 -5 22 22 22 26 0
30 -3 27 -22z m-78 -8 c9 -16 8 -22 -5 -26 -23 -9 -45 3 -45 26 0 27 36 27 50
0z m-80 -9 c15 -29 13 -33 -17 -29 -20 2 -29 9 -31 26 -4 28 33 31 48 3z m-80
-10 c14 -28 13 -31 -14 -31 -28 0 -40 14 -32 35 8 21 33 18 46 -4z m240 -131
l0 -81 -137 3 -138 3 -3 78 -3 77 141 0 140 0 0 -80z"/>
<path d="M1250 1495 l0 -245 245 0 245 0 0 245 0 245 -245 0 -245 0 0 -245z
m378 103 c-2 -15 -10 -23 -22 -23 -10 0 -22 10 -27 23 -8 20 -5 22 22 22 26 0
30 -3 27 -22z m-78 -8 c9 -16 8 -22 -5 -26 -23 -9 -45 3 -45 26 0 27 36 27 50
0z m-80 -9 c15 -29 13 -33 -17 -29 -20 2 -29 9 -31 26 -4 28 33 31 48 3z m-80
-10 c14 -28 13 -31 -14 -31 -28 0 -40 14 -32 35 8 21 33 18 46 -4z m240 -131
l0 -81 -137 3 -138 3 -3 78 -3 77 141 0 140 0 0 -80z"/>
<path d="M110 925 l0 -245 245 0 245 0 0 245 0 245 -245 0 -245 0 0 -245z
m378 103 c-2 -15 -10 -23 -22 -23 -10 0 -22 10 -27 23 -8 20 -5 22 22 22 26 0
30 -3 27 -22z m-78 -8 c9 -16 8 -22 -5 -26 -23 -9 -45 3 -45 26 0 27 36 27 50
0z m-80 -9 c15 -29 13 -33 -17 -29 -20 2 -29 9 -31 26 -4 28 33 31 48 3z m-80
-10 c14 -28 13 -31 -14 -31 -28 0 -40 14 -32 35 8 21 33 18 46 -4z m240 -131
l0 -81 -137 3 -138 3 -3 78 -3 77 141 0 140 0 0 -80z"/>
<path d="M680 925 l0 -245 245 0 245 0 0 245 0 245 -245 0 -245 0 0 -245z
m378 103 c-2 -15 -10 -23 -22 -23 -10 0 -22 10 -27 23 -8 20 -5 22 22 22 26 0
30 -3 27 -22z m-78 -8 c9 -16 8 -22 -5 -26 -23 -9 -45 3 -45 26 0 27 36 27 50
0z m-80 -9 c15 -29 13 -33 -17 -29 -20 2 -29 9 -31 26 -4 28 33 31 48 3z m-80
-10 c14 -28 13 -31 -14 -31 -28 0 -40 14 -32 35 8 21 33 18 46 -4z m240 -131
l0 -81 -137 3 -138 3 -3 78 -3 77 141 0 140 0 0 -80z"/>
<path d="M1250 925 l0 -245 245 0 245 0 0 245 0 245 -245 0 -245 0 0 -245z
m378 103 c-2 -15 -10 -23 -22 -23 -10 0 -22 10 -27 23 -8 20 -5 22 22 22 26 0
30 -3 27 -22z m-78 -8 c9 -16 8 -22 -5 -26 -23 -9 -45 3 -45 26 0 27 36 27 50
0z m-80 -9 c15 -29 13 -33 -17 -29 -20 2 -29 9 -31 26 -4 28 33 31 48 3z m-80
-10 c14 -28 13 -31 -14 -31 -28 0 -40 14 -32 35 8 21 33 18 46 -4z m240 -131
l0 -81 -137 3 -138 3 -3 78 -3 77 141 0 140 0 0 -80z"/>
<path d="M110 355 l0 -245 245 0 245 0 0 245 0 245 -245 0 -245 0 0 -245z
m378 103 c-2 -15 -10 -23 -22 -23 -10 0 -22 10 -27 23 -8 20 -5 22 22 22 26 0
30 -3 27 -22z m-78 -8 c9 -16 8 -22 -5 -26 -23 -9 -45 3 -45 26 0 27 36 27 50
0z m-80 -9 c15 -29 13 -33 -17 -29 -20 2 -29 9 -31 26 -4 28 33 31 48 3z m-80
-10 c14 -28 13 -31 -14 -31 -28 0 -40 14 -32 35 8 21 33 18 46 -4z m240 -131
l0 -81 -137 3 -138 3 -3 78 -3 77 141 0 140 0 0 -80z"/>
<path d="M680 355 l0 -245 245 0 245 0 0 245 0 245 -245 0 -245 0 0 -245z
m378 103 c-2 -15 -10 -23 -22 -23 -10 0 -22 10 -27 23 -8 20 -5 22 22 22 26 0
30 -3 27 -22z m-78 -8 c9 -16 8 -22 -5 -26 -23 -9 -45 3 -45 26 0 27 36 27 50
0z m-80 -9 c15 -29 13 -33 -17 -29 -20 2 -29 9 -31 26 -4 28 33 31 48 3z m-80
-10 c14 -28 13 -31 -14 -31 -28 0 -40 14 -32 35 8 21 33 18 46 -4z m240 -131
l0 -81 -137 3 -138 3 -3 78 -3 77 141 0 140 0 0 -80z"/>
<path d="M1250 355 l0 -245 245 0 245 0 0 245 0 245 -245 0 -245 0 0 -245z
m378 103 c-2 -15 -10 -23 -22 -23 -10 0 -22 10 -27 23 -8 20 -5 22 22 22 26 0
30 -3 27 -22z m-78 -8 c9 -16 8 -22 -5 -26 -23 -9 -45 3 -45 26 0 27 36 27 50
0z m-80 -9 c15 -29 13 -33 -17 -29 -20 2 -29 9 -31 26 -4 28 33 31 48 3z m-80
-10 c14 -28 13 -31 -14 -31 -28 0 -40 14 -32 35 8 21 33 18 46 -4z m240 -131
l0 -81 -137 3 -138 3 -3 78 -3 77 141 0 140 0 0 -80z"/>
</g>
</svg>
